<svg data-v-423bf9ae="" xmlns="http://www.w3.org/2000/svg" viewBox="0 0 597 90" class="iconLeft"><!----><!----><!----><g data-v-423bf9ae="" id="f650f830-4918-4bde-814e-3544b0ede005" fill="#ffffff" transform="matrix(5.759321212813602,0,0,5.759321212813602,141.018558512066,-3.948166570456081)"><path d="M2.67 3.72L2.67 11.75L6.03 11.75L6.03 13.52L0.83 13.52L0.83 5.19L0.83 5.19Q0.83 4.49 1.33 4.10L1.33 4.10L1.33 4.10Q1.83 3.71 2.67 3.72L2.67 3.72ZM7.43 6.29L9.27 6.29L9.27 9.76L9.27 9.76Q9.27 10.01 9.28 10.30L9.28 10.30L9.28 10.30Q9.28 10.58 9.33 10.86L9.33 10.86L9.33 10.86Q9.38 11.13 9.50 11.37L9.50 11.37L9.50 11.37Q9.62 11.61 9.86 11.77L9.86 11.77L9.86 11.77Q10.01 11.89 10.21 11.94L10.21 11.94L10.21 11.94Q10.42 12.00 10.63 12.00L10.63 12.00L10.63 12.00Q10.84 12.00 11.03 11.94L11.03 11.94L11.03 11.94Q11.23 11.89 11.40 11.77L11.40 11.77L11.40 11.77Q11.63 11.62 11.75 11.39L11.75 11.39L11.75 11.39Q11.87 11.16 11.92 10.89L11.92 10.89L11.92 10.89Q11.97 10.63 11.97 10.35L11.97 10.35L11.97 10.35Q11.97 10.07 11.97 9.81L11.97 9.81L11.97 7.73L11.97 7.73Q11.96 6.97 12.46 6.60L12.46 6.60L12.46 6.60Q12.96 6.23 13.78 6.26L13.78 6.26L13.78 9.34L13.78 9.34Q13.79 10.29 13.71 10.93L13.71 10.93L13.71 10.93Q13.64 11.56 13.48 11.93L13.48 11.93L13.48 11.93Q13.08 12.87 12.33 13.27L12.33 13.27L12.33 13.27Q11.59 13.68 10.60 13.68L10.60 13.68L10.60 13.68Q9.52 13.68 8.75 13.20L8.75 13.20L8.75 13.20Q7.98 12.73 7.64 11.68L7.64 11.68L7.64 11.68Q7.55 11.35 7.49 10.80L7.49 10.80L7.49 10.80Q7.43 10.25 7.43 9.59L7.43 9.59L7.43 6.29ZM20.83 8.96L20.83 8.96L20.83 8.96Q20.72 8.57 20.41 8.30L20.41 8.30L20.41 8.30Q20.09 8.04 19.67 7.90L19.67 7.90L19.67 7.90Q19.25 7.77 18.77 7.78L18.77 7.78L18.77 7.78Q18.30 7.78 17.87 7.97L17.87 7.97L17.87 7.97Q17.44 8.15 17.12 8.51L17.12 8.51L17.12 8.51Q16.80 8.86 16.67 9.41L16.67 9.41L16.67 9.41Q16.58 9.86 16.65 10.32L16.65 10.32L16.65 10.32Q16.72 10.78 16.97 11.15L16.97 11.15L16.97 11.15Q17.22 11.52 17.65 11.76L17.65 11.76L17.65 11.76Q18.07 12.00 18.68 12.00L18.68 12.00L18.68 12.00Q19.81 12.00 20.44 11.17L20.44 11.17L21.77 12.14L21.77 12.14Q20.71 13.64 18.70 13.64L18.70 13.64L18.70 13.64Q17.65 13.64 16.89 13.24L16.89 13.24L16.89 13.24Q16.13 12.84 15.65 12.20L15.65 12.20L15.65 12.20Q15.18 11.56 15.01 10.77L15.01 10.77L15.01 10.77Q14.84 9.98 14.97 9.21L14.97 9.21L14.97 9.21Q15.11 8.43 15.55 7.74L15.55 7.74L15.55 7.74Q16.00 7.04 16.77 6.61L16.77 6.61L16.77 6.61Q17.35 6.29 18.00 6.17L18.00 6.17L18.00 6.17Q18.65 6.05 19.31 6.15L19.31 6.15L19.31 6.15Q20.17 6.27 20.66 6.66L20.66 6.66L20.66 6.66Q21.14 7.06 21.29 7.51L21.29 7.51L21.29 7.51Q21.45 7.97 21.32 8.38L21.32 8.38L21.32 8.38Q21.18 8.79 20.83 8.96ZM28.29 13.52L28.29 12.73L28.29 12.73Q27.76 13.24 27.14 13.48L27.14 13.48L27.14 13.48Q26.52 13.72 25.89 13.70L25.89 13.70L25.89 13.70Q25.26 13.68 24.66 13.41L24.66 13.41L24.66 13.41Q24.07 13.15 23.61 12.65L23.61 12.65L23.61 12.65Q23.16 12.15 22.88 11.46L22.88 11.46L22.88 11.46Q22.61 10.77 22.61 9.88L22.61 9.88L22.61 9.88Q22.61 9.04 22.90 8.33L22.90 8.33L22.90 8.33Q23.20 7.62 23.70 7.11L23.70 7.11L23.70 7.11Q24.19 6.61 24.83 6.34L24.83 6.34L24.83 6.34Q25.47 6.06 26.15 6.09L26.15 6.09L26.15 6.09Q26.82 6.12 27.23 6.39L27.23 6.39L27.23 6.39Q27.64 6.66 27.83 7.03L27.83 7.03L27.83 7.03Q28.01 7.39 28.02 7.76L28.02 7.76L28.02 7.76Q28.03 8.13 27.90 8.36L27.90 8.36L27.90 8.36Q27.66 8.01 27.23 7.89L27.23 7.89L27.23 7.89Q26.80 7.77 26.39 7.77L26.39 7.77L26.39 7.77Q25.75 7.77 25.31 8.09L25.31 8.09L25.31 8.09Q24.88 8.40 24.65 8.88L24.65 8.88L24.65 8.88Q24.43 9.35 24.42 9.91L24.42 9.91L24.42 9.91Q24.42 10.46 24.63 10.93L24.63 10.93L24.63 10.93Q24.85 11.41 25.29 11.73L25.29 11.73L25.29 11.73Q25.73 12.04 26.39 12.04L26.39 12.04L26.39 12.04Q26.95 12.04 27.31 11.79L27.31 11.79L27.31 11.79Q27.68 11.54 27.90 11.14L27.90 11.14L27.90 11.14Q28.11 10.74 28.20 10.24L28.20 10.24L28.20 10.24Q28.29 9.74 28.29 9.25L28.29 9.25L28.29 7.04L28.29 6.27L30.11 6.27L30.11 13.52L28.29 13.52ZM35.11 8.50L35.11 8.50L35.11 8.50Q35 8.23 34.80 8.07L34.80 8.07L34.80 8.07Q34.61 7.91 34.38 7.83L34.38 7.83L34.38 7.83Q34.15 7.74 33.93 7.74L33.93 7.74L33.93 7.74Q33.71 7.73 33.57 7.78L33.57 7.78L33.57 7.78Q33.32 7.87 33.24 8.07L33.24 8.07L33.24 8.07Q33.17 8.27 33.32 8.46L33.32 8.46L33.32 8.46Q33.45 8.60 33.72 8.73L33.72 8.73L33.72 8.73Q33.99 8.86 34.33 9.02L34.33 9.02L34.33 9.02Q34.66 9.18 35.02 9.39L35.02 9.39L35.02 9.39Q35.38 9.59 35.67 9.87L35.67 9.87L35.67 9.87Q35.97 10.15 36.16 10.53L36.16 10.53L36.16 10.53Q36.34 10.91 36.34 11.42L36.34 11.42L36.34 11.42Q36.34 12.03 36.08 12.48L36.08 12.48L36.08 12.48Q35.81 12.94 35.37 13.22L35.37 13.22L35.37 13.22Q34.93 13.50 34.38 13.60L34.38 13.60L34.38 13.60Q33.82 13.71 33.26 13.62L33.26 13.62L33.26 13.62Q32.69 13.54 32.16 13.24L32.16 13.24L32.16 13.24Q31.63 12.94 31.23 12.42L31.23 12.42L32.35 11.21L32.35 11.21Q32.70 11.63 33.09 11.82L33.09 11.82L33.09 11.82Q33.47 12.00 33.80 12.02L33.80 12.02L33.80 12.02Q34.13 12.04 34.36 11.92L34.36 11.92L34.36 11.92Q34.58 11.80 34.63 11.60L34.63 11.60L34.63 11.60Q34.68 11.40 34.51 11.15L34.51 11.15L34.51 11.15Q34.34 10.91 33.87 10.67L33.87 10.67L33.87 10.67Q33.42 10.44 32.99 10.21L32.99 10.21L32.99 10.21Q32.56 9.97 32.23 9.67L32.23 9.67L32.23 9.67Q31.91 9.38 31.70 9.02L31.70 9.02L31.70 9.02Q31.50 8.65 31.50 8.16L31.50 8.16L31.50 8.16Q31.50 7.66 31.71 7.27L31.71 7.27L31.71 7.27Q31.92 6.87 32.27 6.61L32.27 6.61L32.27 6.61Q32.62 6.34 33.07 6.22L33.07 6.22L33.07 6.22Q33.52 6.09 33.99 6.10L33.99 6.10L33.99 6.10Q34.80 6.15 35.23 6.46L35.23 6.46L35.23 6.46Q35.66 6.78 35.76 7.18L35.76 7.18L35.76 7.18Q35.87 7.57 35.69 7.95L35.69 7.95L35.69 7.95Q35.52 8.33 35.11 8.50ZM42.50 3.72L42.50 3.72L44.66 3.72L44.66 3.72Q45.79 3.72 46.51 4.24L46.51 4.24L46.51 4.24Q47.22 4.75 47.55 5.51L47.55 5.51L47.55 5.51Q47.88 6.27 47.83 7.16L47.83 7.16L47.83 7.16Q47.78 8.05 47.40 8.81L47.40 8.81L47.40 8.81Q47.03 9.58 46.33 10.09L46.33 10.09L46.33 10.09Q45.63 10.60 44.65 10.60L44.65 10.60L44.65 10.60Q43.90 10.60 43.51 10.35L43.51 10.35L43.51 10.35Q43.11 10.11 42.97 9.77L42.97 9.77L42.97 9.77Q42.83 9.42 42.90 9.04L42.90 9.04L42.90 9.04Q42.97 8.67 43.16 8.39L43.16 8.39L43.16 8.39Q43.23 8.54 43.43 8.62L43.43 8.62L43.43 8.62Q43.62 8.71 43.87 8.75L43.87 8.75L43.87 8.75Q44.11 8.79 44.35 8.79L44.35 8.79L44.35 8.79Q44.59 8.79 44.74 8.76L44.74 8.76L44.74 8.76Q45.12 8.69 45.40 8.43L45.40 8.43L45.40 8.43Q45.67 8.16 45.80 7.81L45.80 7.81L45.80 7.81Q45.93 7.45 45.93 7.05L45.93 7.05L45.93 7.05Q45.93 6.65 45.77 6.31L45.77 6.31L45.77 6.31Q45.61 5.98 45.27 5.76L45.27 5.76L45.27 5.76Q44.93 5.54 44.39 5.54L44.39 5.54L42.81 5.54L42.81 13.52L40.96 13.52L40.96 5.45L40.96 5.45Q40.96 4.68 41.31 4.20L41.31 4.20L41.31 4.20Q41.66 3.72 42.50 3.72ZM49.24 13.52L49.24 7.74L49.24 7.74Q49.27 7.32 49.41 7.04L49.41 7.04L49.41 7.04Q49.56 6.76 49.80 6.59L49.80 6.59L49.80 6.59Q50.04 6.43 50.35 6.35L50.35 6.35L50.35 6.35Q50.67 6.27 51.04 6.27L51.04 6.27L51.04 13.52L49.24 13.52ZM50.15 3.29L50.15 3.29L50.15 3.29Q50.62 3.29 50.96 3.64L50.96 3.64L50.96 3.64Q51.31 3.98 51.31 4.47L51.31 4.47L51.31 4.47Q51.31 4.96 50.97 5.31L50.97 5.31L50.97 5.31Q50.78 5.50 50.52 5.58L50.52 5.58L50.52 5.58Q50.26 5.66 50.00 5.73L50.00 5.73L50.00 5.73Q49.74 5.81 49.53 5.92L49.53 5.92L49.53 5.92Q49.31 6.02 49.22 6.26L49.22 6.26L49.22 6.26Q49.15 6.03 49.08 5.68L49.08 5.68L49.08 5.68Q49 5.33 48.98 4.96L48.98 4.96L48.98 4.96Q48.96 4.58 49.02 4.22L49.02 4.22L49.02 4.22Q49.08 3.86 49.32 3.63L49.32 3.63L49.32 3.63Q49.66 3.29 50.15 3.29ZM54.52 6.27L54.52 7.11L54.52 7.11Q54.63 6.86 54.86 6.68L54.86 6.68L54.86 6.68Q55.09 6.50 55.37 6.37L55.37 6.37L55.37 6.37Q55.65 6.24 55.94 6.17L55.94 6.17L55.94 6.17Q56.24 6.10 56.49 6.09L56.49 6.09L56.49 6.09Q57.02 6.06 57.54 6.24L57.54 6.24L57.54 6.24Q58.06 6.41 58.49 6.85L58.49 6.85L58.49 6.85Q59.12 7.50 59.12 8.74L59.12 8.74L59.12 13.52L57.33 13.52L57.33 13.52Q57.33 13.29 57.34 12.88L57.34 12.88L57.34 12.88Q57.34 12.47 57.34 11.99L57.34 11.99L57.34 11.99Q57.34 11.51 57.34 10.99L57.34 10.99L57.34 10.99Q57.34 10.47 57.33 10.01L57.33 10.01L57.33 10.01Q57.32 9.55 57.29 9.18L57.29 9.18L57.29 9.18Q57.26 8.82 57.22 8.65L57.22 8.65L57.22 8.65Q57.11 8.20 56.79 7.98L56.79 7.98L56.79 7.98Q56.48 7.76 56.11 7.76L56.11 7.76L56.11 7.76Q55.64 7.76 55.37 8.02L55.37 8.02L55.37 8.02Q55.10 8.27 55.10 8.69L55.10 8.69L55.10 8.69Q54.94 8.64 54.77 8.46L54.77 8.46L54.77 8.46Q54.60 8.29 54.52 8.09L54.52 8.09L54.52 8.47L54.52 13.52L52.71 13.52L52.71 6.27L54.52 6.27ZM61.28 6.33L61.28 5.15L61.28 5.15Q61.28 4.76 61.43 4.49L61.43 4.49L61.43 4.49Q61.57 4.21 61.82 4.05L61.82 4.05L61.82 4.05Q62.06 3.88 62.38 3.80L62.38 3.80L62.38 3.80Q62.71 3.72 63.04 3.72L63.04 3.72L63.04 6.33L64.67 6.33L64.67 6.33Q64.67 6.61 64.62 6.87L64.62 6.87L64.62 6.87Q64.57 7.14 64.43 7.36L64.43 7.36L64.43 7.36Q64.29 7.57 64.05 7.71L64.05 7.71L64.05 7.71Q63.81 7.84 63.43 7.84L63.43 7.84L63.04 7.84L63.04 11.80L63.04 11.80Q63.04 12.03 63.21 12.12L63.21 12.12L63.21 12.12Q63.38 12.21 63.60 12.20L63.60 12.20L63.60 12.20Q63.83 12.19 64.05 12.10L64.05 12.10L64.05 12.10Q64.27 12.00 64.37 11.83L64.37 11.83L64.37 11.83Q64.55 12.29 64.39 12.65L64.39 12.65L64.39 12.65Q64.23 13.01 63.89 13.22L63.89 13.22L63.89 13.22Q63.55 13.44 63.09 13.50L63.09 13.50L63.09 13.50Q62.64 13.57 62.24 13.43L62.24 13.43L62.24 13.43Q61.84 13.30 61.56 12.96L61.56 12.96L61.56 12.96Q61.28 12.61 61.28 12.03L61.28 12.03L61.28 7.84L60.38 7.84L60.38 6.33L61.28 6.33ZM69.30 6.10L69.30 6.10L69.30 6.10Q70.41 6.10 71.27 6.64L71.27 6.64L71.27 6.64Q72.13 7.17 72.62 7.99L72.62 7.99L72.62 7.99Q73.11 8.82 73.14 9.83L73.14 9.83L73.14 9.83Q73.18 10.84 72.63 11.80L72.63 11.80L72.63 11.80Q72.17 12.60 71.43 13.08L71.43 13.08L71.43 13.08Q70.69 13.55 69.85 13.67L69.85 13.67L69.85 13.67Q69.01 13.79 68.16 13.53L68.16 13.53L68.16 13.53Q67.31 13.27 66.64 12.60L66.64 12.60L66.64 12.60Q65.88 11.83 65.63 10.82L65.63 10.82L65.63 10.82Q65.38 9.81 65.67 8.81L65.67 8.81L65.67 8.81Q65.80 8.40 66.09 8.13L66.09 8.13L66.09 8.13Q66.37 7.87 66.74 7.74L66.74 7.74L66.74 7.74Q67.10 7.62 67.49 7.63L67.49 7.63L67.49 7.63Q67.89 7.64 68.22 7.79L68.22 7.79L68.22 7.79Q68.56 7.94 68.79 8.21L68.79 8.21L68.79 8.21Q69.02 8.48 69.06 8.88L69.06 8.88L69.06 8.88Q68.85 8.72 68.56 8.71L68.56 8.71L68.56 8.71Q68.26 8.71 67.99 8.84L67.99 8.84L67.99 8.84Q67.72 8.97 67.53 9.25L67.53 9.25L67.53 9.25Q67.34 9.52 67.34 9.93L67.34 9.93L67.34 9.93Q67.34 10.63 67.63 11.09L67.63 11.09L67.63 11.09Q67.93 11.55 68.37 11.78L68.37 11.78L68.37 11.78Q68.81 12.01 69.32 12.01L69.32 12.01L69.32 12.01Q69.83 12.01 70.27 11.77L70.27 11.77L70.27 11.77Q70.71 11.54 71.01 11.07L71.01 11.07L71.01 11.07Q71.30 10.60 71.30 9.90L71.30 9.90L71.30 9.90Q71.30 9.35 71.11 8.93L71.11 8.93L71.11 8.93Q70.91 8.51 70.58 8.24L70.58 8.24L70.58 8.24Q70.25 7.97 69.82 7.86L69.82 7.86L69.82 7.86Q69.38 7.76 68.89 7.85L68.89 7.85L68.89 7.85Q68.68 7.60 68.38 7.46L68.38 7.46L68.38 7.46Q68.08 7.31 67.73 7.26L67.73 7.26L67.73 7.26Q67.38 7.21 67.03 7.27L67.03 7.27L67.03 7.27Q66.68 7.34 66.37 7.52L66.37 7.52L66.37 7.52Q66.93 6.85 67.68 6.48L67.68 6.48L67.68 6.48Q68.42 6.10 69.30 6.10ZM77.87 8.50L77.87 8.50L77.87 8.50Q77.76 8.23 77.56 8.07L77.56 8.07L77.56 8.07Q77.36 7.91 77.13 7.83L77.13 7.83L77.13 7.83Q76.90 7.74 76.68 7.74L76.68 7.74L76.68 7.74Q76.47 7.73 76.33 7.78L76.33 7.78L76.33 7.78Q76.08 7.87 76.00 8.07L76.00 8.07L76.00 8.07Q75.92 8.27 76.08 8.46L76.08 8.46L76.08 8.46Q76.20 8.60 76.47 8.73L76.47 8.73L76.47 8.73Q76.75 8.86 77.08 9.02L77.08 9.02L77.08 9.02Q77.42 9.18 77.78 9.39L77.78 9.39L77.78 9.39Q78.13 9.59 78.43 9.87L78.43 9.87L78.43 9.87Q78.72 10.15 78.91 10.53L78.91 10.53L78.91 10.53Q79.10 10.91 79.10 11.42L79.10 11.42L79.10 11.42Q79.10 12.03 78.83 12.48L78.83 12.48L78.83 12.48Q78.57 12.94 78.13 13.22L78.13 13.22L78.13 13.22Q77.69 13.50 77.13 13.60L77.13 13.60L77.13 13.60Q76.58 13.71 76.01 13.62L76.01 13.62L76.01 13.62Q75.45 13.54 74.91 13.24L74.91 13.24L74.91 13.24Q74.38 12.94 73.99 12.42L73.99 12.42L75.11 11.21L75.11 11.21Q75.46 11.63 75.84 11.82L75.84 11.82L75.84 11.82Q76.23 12.00 76.56 12.02L76.56 12.02L76.56 12.02Q76.89 12.04 77.11 11.92L77.11 11.92L77.11 11.92Q77.34 11.80 77.38 11.60L77.38 11.60L77.38 11.60Q77.43 11.40 77.27 11.15L77.27 11.15L77.27 11.15Q77.10 10.91 76.62 10.67L76.62 10.67L76.62 10.67Q76.17 10.44 75.75 10.21L75.75 10.21L75.75 10.21Q75.32 9.97 74.99 9.67L74.99 9.67L74.99 9.67Q74.66 9.38 74.46 9.02L74.46 9.02L74.46 9.02Q74.26 8.65 74.26 8.16L74.26 8.16L74.26 8.16Q74.26 7.66 74.47 7.27L74.47 7.27L74.47 7.27Q74.68 6.87 75.03 6.61L75.03 6.61L75.03 6.61Q75.38 6.34 75.82 6.22L75.82 6.22L75.82 6.22Q76.27 6.09 76.75 6.10L76.75 6.10L76.75 6.10Q77.56 6.15 77.99 6.46L77.99 6.46L77.99 6.46Q78.41 6.78 78.52 7.18L78.52 7.18L78.52 7.18Q78.62 7.57 78.45 7.95L78.45 7.95L78.45 7.95Q78.27 8.33 77.87 8.50Z"></path></g><!----><g data-v-423bf9ae="" id="d4eb0282-25c6-4927-bc00-39a12a9185ce" transform="matrix(2.5919209008514144,0,0,2.5919209008514144,-1.0649006852896719,-19.196166428965938)" stroke="none" fill="#1DC7DA"><path d="M17.422 36.759a.995.995 0 0 1-.564-.175L1.167 25.825a1 1 0 0 1 0-1.65l15.69-10.759a1 1 0 0 1 1.131 1.649L3.5 25l14.488 9.934a1 1 0 0 1-.566 1.825zM32.578 36.759a1.001 1.001 0 0 1-.566-1.826L46.499 25l-14.487-9.934a1 1 0 0 1 1.131-1.649l15.69 10.759a1.001 1.001 0 0 1 0 1.65l-15.69 10.759a1.01 1.01 0 0 1-.565.174zM20.557 41.697a1 1 0 0 1-1.9-.625l10.787-32.77a1.002 1.002 0 0 1 1.901.626L20.557 41.697z"></path></g><!----></svg>